<?xml version="1.0" encoding="utf-8" ?>
<svg xmlns="http://www.w3.org/2000/svg" xmlns:ev="http://www.w3.org/2001/xml-events" xmlns:xlink="http://www.w3.org/1999/xlink" baseProfile="full" height="32px" version="1.1" viewBox="0 0 32 32" width="32px">
  <defs/>
  <g id="xffffff_r255_g255_b255_a1.0">
    <path d="M 19,9 19,15 20,15 20,16 21,16 21,17 18,17 18,18 25,18 25,19 24,19 24,20 23,20 23,21 21,21 21,22 18,22 18,23 22,23 22,22 24,22 24,23 23,23 23,25 21,25 21,26 19,26 19,27 17,27 17,28 8,28 8,27 5,27 5,26 4,26 4,25 3,25 3,24 2,24 2,22 1,22 1,18 2,18 2,20 3,20 3,21 4,21 4,22 5,22 5,21 7,21 7,20 4,20 4,19 3,19 3,17 5,17 11,17 11,16 13,16 13,15 14,15 14,14 15,14 15,5 16,5 16,3 17,3 17,2 22,2 22,3 23,3 23,5 24,5 24,8 23,8 23,9 z M 18,7 20,7 20,5 18,5 z" fill="#ffffff" fill-opacity="1.0" id="xffffff_r255_g255_b255_a1.0_shape1"/>
  </g>
  <g id="x000000_r0_g0_b0_a1.0">
    <path d="M 24,6 24,5 23,5 23,3 22,3 22,2 17,2 17,3 16,3 16,4 16,5 15,5 15,6 15,14 14,14 14,15 13,15 13,16 11,16 11,17 7,17 3,17 3,16 2,16 2,13 3,13 3,15 4,15 4,16 10,16 10,15 12,15 12,14 13,14 13,13 14,13 14,11 14,4 15,4 15,2 16,2 16,1 20,1 23,1 23,2 24,2 24,4 25,4 25,5 26,5 26,6 27,6 27,7 25,7 25,6 z" fill="#000000" fill-opacity="1.0" id="x000000_r0_g0_b0_a1.0_shape1"/>
    <path d="M 7,29 7,28 5,28 5,27 8,27 8,28 17,28 17,27 19,27 19,26 21,26 21,25 23,25 23,23 24,23 24,22 22,22 22,23 18,23 18,22 21,22 21,21 23,21 23,20 24,20 24,19 25,19 25,21 25,24 24,24 24,26 22,26 22,27 20,27 20,28 18,28 18,29 z" fill="#000000" fill-opacity="1.0" id="x000000_r0_g0_b0_a1.0_shape2"/>
    <path d="M 20,16 20,15 19,15 19,9 23,9 23,10 25,10 25,11 28,11 28,12 31,12 31,13 28,13 27,13 27,12 26,12 24,12 24,11 22,11 22,10 20,10 20,11 20,14 21,14 21,15 22,15 22,17 25,17 26,17 26,19 25,19 25,18 21,18 18,18 18,17 21,17 21,16 z" fill="#000000" fill-opacity="1.0" id="x000000_r0_g0_b0_a1.0_shape3"/>
    <path d="M 2,18 1,18 1,22 2,22 2,24 1,24 1,23 0,23 0,14 1,14 1,16 2,16 2,17 3,17 3,19 4,19 4,20 6,20 7,20 7,21 6,21 5,21 5,22 4,22 4,21 3,21 3,20 2,20 z" fill="#000000" fill-opacity="1.0" id="x000000_r0_g0_b0_a1.0_shape4"/>
    <path d="M 5,27 3,27 3,26 2,26 2,24 3,24 3,25 4,25 4,26 5,26 z" fill="#000000" fill-opacity="1.0" id="x000000_r0_g0_b0_a1.0_shape5"/>
    <path d="M 20,7 18,7 18,5 20,5 z" fill="#000000" fill-opacity="1.0" id="x000000_r0_g0_b0_a1.0_shape6"/>
    <path d="M 28,8 30,8 30,9 28,9 z" fill="#000000" fill-opacity="1.0" id="x000000_r0_g0_b0_a1.0_shape7"/>
    <path d="M 32,10 32,12 31,12 31,10 z" fill="#000000" fill-opacity="1.0" id="x000000_r0_g0_b0_a1.0_shape8"/>
    <path d="M 27,7 28,7 28,8 27,8 z" fill="#000000" fill-opacity="1.0" id="x000000_r0_g0_b0_a1.0_shape9"/>
    <path d="M 30,10 30,9 31,9 31,10 z" fill="#000000" fill-opacity="1.0" id="x000000_r0_g0_b0_a1.0_shape10"/>
  </g>
  <g id="xffab09_r255_g171_b9_a1.0">
    <path d="M 28,12 28,11 26,11 25,11 25,10 24,10 23,10 23,8 24,8 24,6 25,6 25,7 26,7 27,7 27,8 28,8 28,9 30,9 30,10 31,10 31,11 31,12 z" fill="#ffab09" fill-opacity="1.0" id="xffab09_r255_g171_b9_a1.0_shape1"/>
    <path d="M 14,31 14,32 9,32 9,29 10,29 10,31 z" fill="#ffab09" fill-opacity="1.0" id="xffab09_r255_g171_b9_a1.0_shape2"/>
    <path d="M 16,32 16,29 17,29 17,31 21,31 21,32 z" fill="#ffab09" fill-opacity="1.0" id="xffab09_r255_g171_b9_a1.0_shape3"/>
  </g>
  <g id="x298c2d_r41_g140_b45_a1.0">
    <path d="M 23,17 22,17 22,16 23,16 23,15 24,15 24,14 32,14 32,16 28,16 28,17 27,17 27,19 26,19 26,16 25,16 24,16 24,17 z" fill="#298c2d" fill-opacity="1.0" id="x298c2d_r41_g140_b45_a1.0_shape1"/>
    <path d="M 25,20 25,19 26,19 26,20 z" fill="#298c2d" fill-opacity="1.0" id="x298c2d_r41_g140_b45_a1.0_shape2"/>
  </g>
</svg>
